<svg viewBox="0 0 400 400" xmlns="http://www.w3.org/2000/svg" height="400" width="400"><path d="M356 121.6a32.664 32.664 0 0 0 -25.846 -28.318c-24.476 -4.752 -45.21 20.7 -34.504 44.156a32.048 32.048 0 0 0 40.096 16.696A32.656 32.656 0 0 0 356 121.6Zm-26.542 30.274c-12.81 2.066 -27 -5.3 -31.4 -18.114a28 28 0 0 1 26.874 -37.2 28.876 28.876 0 0 1 26.51 20.874c4.202 15.144 -6.602 31.966 -21.984 34.44Z" fill="#ffb306" stroke-width="2"></path><path d="M326.12 119.722a154.866 154.866 0 0 0 -2.708 -9.346 12.676 12.676 0 0 1 6.182 1.046c1.324 0.556 2.148 -1.588 0.966 -2.288a12.718 12.718 0 0 0 -8.144 -1.524 26.554 26.554 0 0 0 -1.868 -3.944 1.188 1.188 0 0 0 -2.2 0.822 32.434 32.434 0 0 0 0.764 3.99c-9.298 3.754 -9.852 16.2 4.132 14.946 1.064 4 1.916 7.844 2.686 11.918a36.53 36.53 0 0 1 -11.658 -1.12 1.526 1.526 0 0 0 -0.8 2.942 28.662 28.662 0 0 0 13.104 1.49c0.328 1.6 0.696 3.292 1.17 5.16 0.366 1.442 2.79 1.348 2.716 -0.258a64.126 64.126 0 0 0 -0.54 -5.88 10.382 10.382 0 0 0 6.8 -11.232c-0.922 -5.516 -5.638 -7.028 -10.602 -6.722Zm-10.268 -2.566a6.34 6.34 0 0 1 4.034 -5.8c0.838 2.89 1.676 5.756 2.458 8.664 -2.944 0.13 -6.228 -0.204 -6.492 -2.864Zm13.528 17.128c-0.698 -3.736 -1.6 -7.48 -2.448 -11.186 2.646 -0.148 5.446 0.232 6.372 3.182a6.816 6.816 0 0 1 -3.924 8.004Z" fill="#ffb306" stroke-width="2"></path><path d="M266.354 215.296a10.294 10.294 0 0 0 7.058 -13.98 10.056 10.056 0 0 0 -7.058 13.98Z" fill="#ffb306" stroke-width="2"></path><path d="M271.498 198.362c-4.966 -5.6 -13 -5.104 -17.986 0.346 -7.156 7.814 -1.428 18 9.178 17.212a14.09 14.09 0 0 1 8.808 -17.558Z" fill="#ffb306" stroke-width="2"></path><path d="M301.85 191.946c-30.914 -16.122 -79.984 -41.702 -105.692 -54.136 -8.772 -4.242 -17.172 -1.468 -21.342 5.952 -1.466 2.6 -3.448 5.516 -7.956 13.8a44.764 44.764 0 0 0 14.112 -4.056c8.548 -3.964 18.902 0 15.618 11 -2.76 9.248 -16.86 23.87 -44.054 21.084 -4.246 8.248 -9.816 18.728 -12.43 24.694 -3.89 8.872 -2.174 16.446 6.67 21.352 21.614 12 60.38 30.662 90.764 45.692 8.308 -19.28 26.432 -8.034 52.504 -25.482 8.668 -16.45 16.526 -30.8 19.52 -37.154 4.262 -9.044 3.2 -17.054 -7.714 -22.746ZM179 225.14c-7.064 -4.054 -13.926 -8.8 -21.06 -12.66 -1.436 -0.776 0.226 -3.2 1.8 -2.482 3.436 1.57 21.486 10.04 22.734 12.776 0.988 2.174 -1.544 3.47 -3.474 2.366Zm17.864 10.436c-2.156 -1.272 -7.906 -4.27 -9.52 -6.112 -2.166 -2.47 -0.74 -3.84 2.128 -2.98a65.908 65.908 0 0 1 10.364 5.68c3.506 2.054 1.856 6.26 -2.968 3.412Zm20.54 -3.4c-5.656 -2.366 -20.662 -11.958 -25.542 -14.678 -7.478 -4.166 -20.21 -10.288 -26.4 -15.342a1.34 1.34 0 0 1 1.244 -2.336c7.526 2.246 19.658 9.672 26.954 13.73 4.552 2.532 22.914 12.142 26.458 15.38 1.862 1.696 0.424 4.564 -2.718 3.252Zm71.888 -13.8a14.054 14.054 0 0 1 -25.114 0.272c-15.2 2.654 -22.716 -13.538 -11.74 -23.266a14.882 14.882 0 0 1 22.512 2.3 14.43 14.43 0 0 1 14.346 20.718Z" fill="#ffb306" stroke-width="2"></path><path d="M191.694 167.674c2.24 -3.2 3.464 -7.548 -0.26 -10.164 -8.368 -5.882 -22.674 6.286 -31.556 0 -4.548 -3.224 -13.43 -11.538 -3.11 -19.83 8.308 -6.676 18.2 -7.58 28.078 -4.162 1.356 0.47 2.16 -1.622 0.94 -2.3 -10.05 -5.6 -23.552 -3.128 -32.074 4.266 -9.838 8.536 -4.136 17.748 0.568 22.232 8.824 8.412 17.8 3.978 27.642 1.982a11.728 11.728 0 0 1 7.382 0.224c2.85 1.41 1.086 4.432 -0.564 6.4 -7.558 9.064 -20.214 13.188 -31.722 12.774 -14.642 -0.526 -27.2 -8.252 -39.924 -14.868 -1.258 -0.654 -2.286 1.412 -1.14 2.18q2.578 1.724 5.292 3.354c-17.474 29.67 -27.262 58.358 -30.266 77.476a1.252 1.252 0 0 0 2.43 0.6c3.8 -13.75 6.968 -26.086 12.344 -39.446a238.446 238.446 0 0 1 18.372 -36.966c10.55 5.93 21.8 11.35 33.83 11.41 12.604 0.066 26.268 -4.504 33.738 -15.162Z" fill="#1c2733" stroke-width="2"></path><path d="M216.126 144.094a1.254 1.254 0 0 0 2.302 -0.99C210.4 120.782 190.186 103.478 167.84 96.436a229.088 229.088 0 0 0 40.376 -8.182c8.342 -2.48 16.33 -6.176 24.302 -8.524 5.31 -1.564 8.414 1.234 3.6 6.114 -9.582 9.69 -20.6 14.944 -33.178 19.838a1.22 1.22 0 0 0 0.8 2.304c12.444 -2.858 24.362 -10.8 33.778 -19.304 8.12 -7.338 3.114 -14.346 -5.344 -12.228 -7.3 1.828 -15.77 5.898 -23.536 8.254A274.4 274.4 0 0 1 161.554 94.4c15.4 -6.872 30.728 -18.812 41.872 -30.114 1.432 -1.45 6.632 -8.08 9.666 -7.442 2.152 0.454 1.734 3.372 1.316 4.918a53.928 53.928 0 0 1 -10.886 19.044c-0.888 1.082 0.902 2.642 1.87 1.614a55.02 55.02 0 0 0 11.57 -18.256c1.302 -3.484 1.8 -9.568 -2.91 -10.726 -3.962 -0.972 -8.944 4.238 -11.378 6.8A145.742 145.742 0 0 1 156.2 93.508a96.616 96.616 0 0 0 29.694 -30.434c1.942 -3.166 3.662 -8.218 7.962 -8.6 1.644 -0.148 3.082 0.59 2.77 2.926a1.272 1.272 0 0 0 2.43 0.628c1.55 -3.232 -1.4 -6.712 -4.774 -6.866 -5.132 -0.236 -7.702 4.4 -9.93 8.222a89.894 89.894 0 0 1 -9.4 13.318c-7.222 8.442 -18.732 19.322 -26.896 21.498 -21.568 2.448 -47.886 22.432 -63.676 35.4C56 152.894 27.174 185.62 10.16 218.528c-0.738 1.432 1.268 2.78 2.154 1.366 20.65 -33 42.646 -60.64 72.586 -85.52 13.37 -11.11 48.4 -37.4 67.752 -37.23 27.83 1.802 51.872 22.442 63.474 46.95Z" fill="#1c2733" stroke-width="2"></path><path d="M387.728 258.412c-32.65 -4.8 -54.822 -18.042 -84.256 -7.844 -12.726 4.4 -24.368 11.528 -37.294 15.4 -6.102 1.832 -13 1.938 -18.526 5.382a12.442 12.442 0 0 0 -5.638 8.734c-1.352 11.464 11.85 9.434 19.014 8.972 9.132 -0.588 19.932 -1.646 29.336 -1.012 4.378 0.296 4.244 -2.84 0.65 -3.15a203.288 203.288 0 0 0 -28.722 0.296c-3.736 0.218 -12.738 1.586 -15.254 -0.896 -3.986 -3.934 1.6 -9.862 6 -11.4 5.4 -1.9 11.668 -2.476 17.536 -4.464 11.774 -3.986 22.558 -10.372 34.306 -14.424 13.886 -4.788 24.522 -4.182 38.712 -1.582 14.6 2.674 29.254 7.362 44.5 8.764 1.744 0.164 3.394 -2.224 -0.364 -2.776Z" fill="#1c2733" stroke-width="2"></path><path d="M333.4 304.848c-14.15 -8.694 -18.908 -10.224 -33.724 -2.492a99.588 99.588 0 0 1 -23.472 9.308 57.788 57.788 0 0 1 -18.97 0.968c-20.638 -3.092 -60.582 -12.876 -77.058 -23.144 -2.482 -1.546 -10.166 -6.458 -7.768 -9.872 1.6 -2.286 6.914 0.33 8.864 0.896 15.626 4.528 40.022 9.078 56.12 8.082 1.42 -0.086 1.358 -2.328 -0.026 -2.468 -23.362 -2.34 -31.044 -1.836 -54.964 -8.776 -3.944 -1.144 -10.358 -3.904 -12.978 0.59 -3.678 6.306 5.096 12.028 9.542 14.624 17.76 10.372 53.762 19.492 74.1 23 -13.042 2.228 -57.61 9.942 -66.856 11.534 -2.036 0.35 -8.936 2.6 -10.418 0.06 -1.776 -3.05 6.98 -6.568 8.782 -7.456a134.182 134.182 0 0 1 27.488 -9.462c1.508 -0.372 1.08 -2.952 -0.488 -2.712a99.888 99.888 0 0 0 -27.02 8.618c-4 1.88 -12.256 4.922 -12.162 10.372 0.128 7.37 10.754 4.4 14.81 3.696 9.368 -1.62 56.028 -9.524 69.912 -12.082a171.784 171.784 0 0 0 -27.84 14.332c-10.166 6.444 -19.21 16.378 -22.518 12.318 -1.328 -1.632 0.964 -4.176 1.922 -5.486a70.284 70.284 0 0 1 7.858 -8.4c1.124 -1.104 -0.356 -3.134 -1.718 -2.226a33.4 33.4 0 0 0 -6.924 6.496c-2.492 2.984 -7 7.892 -3.488 11.748 2.6 2.858 6.636 2.2 9.6 0.292 5.526 -3.55 10.726 -8.134 16.512 -11.862 11.432 -7.362 26.548 -15.334 39.698 -18.666a151.986 151.986 0 0 0 27.844 -9.2c15.142 -7.348 16.832 -9.77 32.2 -0.346 15.284 9.372 29.344 19.422 44.15 29.384a1.292 1.292 0 0 0 1.512 -2.094 377.61 377.61 0 0 0 -42.522 -29.574Z" fill="#1c2733" stroke-width="2"></path></svg>